<svg width="918" height="239" viewBox="0 0 918 239" fill="none" xmlns="http://www.w3.org/2000/svg">
<g clip-path="url(#clip0_327_2089)">
<path d="M61.5068 211.739C30.6578 208.938 12.5986 194.981 0.575095 173.602C-0.76617 171.221 0.239779 168.234 2.6828 166.927L36.3581 149.142C38.6574 147.928 41.5316 148.581 43.0165 150.682C51.112 162.539 60.5009 169.261 73.4824 169.261C84.452 169.261 89.2902 164.779 89.2902 158.337C89.2902 152.643 86.7514 148.908 75.2548 144.194L46.705 132.524C19.1612 121.321 6.17967 104.469 6.17967 80.1023C6.17967 53.2615 26.5861 29.9217 61.5068 27.9145V4.99473C61.5068 2.24063 63.8062 0 66.6324 0H76.7877C79.6139 0 81.9132 2.24063 81.9132 4.99473V29.0814C101.17 32.6758 115.253 43.4588 124.594 55.6889C126.319 57.9295 125.84 61.1037 123.54 62.7375L94.3678 83.6967C92.308 85.1904 89.386 84.957 87.6136 83.0898C79.1349 74.174 71.3747 70.7664 64.0936 70.7664C56.8124 70.7664 51.8306 74.5008 51.8306 79.9623C51.8306 85.4238 56.1897 88.9248 64.8121 92.6125L95.6612 105.776C109.936 111.751 118.846 117.446 125.504 125.382C132.402 133.831 137.001 144.754 137.001 160.158C137.001 188.726 116.355 209.358 81.9132 211.832V233.865C81.9132 236.619 79.6139 238.86 76.7877 238.86H66.6324C63.8062 238.86 61.5068 236.619 61.5068 233.865V211.552V211.739Z" fill="white"/>
<path d="M158.892 34.8699C158.892 32.5359 160.856 30.6221 163.252 30.6221H225.956C281.043 30.6221 318.263 65.6318 318.263 120.06C318.263 171.501 281.043 209.499 224.423 209.499H163.252C160.856 209.499 158.892 207.585 158.892 205.251V34.8699ZM204.783 166.273C204.783 167.347 205.693 168.234 206.795 168.234H222.124C251.44 168.234 269.786 147.881 269.786 120.014C269.786 90.6988 251.44 71.7936 223.369 71.7936H206.747C205.645 71.7936 204.735 72.6805 204.735 73.7541V166.227L204.783 166.273Z" fill="white"/>
<path d="M431.457 27.6343C486.784 27.6343 528.363 67.1253 528.363 120.06C528.363 172.995 486.784 212.486 431.457 212.486C376.13 212.486 334.55 172.995 334.55 120.06C334.55 67.1253 376.13 27.6343 431.457 27.6343ZM431.457 168.747C459.001 168.747 478.88 146.154 478.88 120.06C478.88 93.9661 459.001 71.3731 431.457 71.3731C403.913 71.3731 384.033 93.2192 384.033 120.06C384.033 146.901 403.913 168.747 431.457 168.747Z" fill="white"/>
<path d="M641.508 27.6343C696.835 27.6343 738.414 67.1253 738.414 120.06C738.414 172.995 696.835 212.486 641.508 212.486C586.181 212.486 544.601 172.995 544.601 120.06C544.601 67.1253 586.181 27.6343 641.508 27.6343ZM641.508 168.747C669.052 168.747 688.931 146.154 688.931 120.06C688.931 93.9661 669.052 71.3731 641.508 71.3731C613.964 71.3731 594.084 93.2192 594.084 120.06C594.084 146.901 613.964 168.747 641.508 168.747Z" fill="white"/>
<path d="M758.629 34.8699C758.629 32.5359 760.593 30.6221 762.988 30.6221H825.692C880.78 30.6221 918 65.6318 918 120.06C918 171.501 880.78 209.499 824.159 209.499H762.988C760.593 209.499 758.629 207.585 758.629 205.251V34.8699ZM804.567 167.067C804.567 167.72 805.094 168.234 805.765 168.234H821.908C851.224 168.234 869.57 147.881 869.57 120.014C869.57 90.6988 851.224 71.7936 823.153 71.7936H805.717C805.046 71.7936 804.519 72.307 804.519 72.9605V167.02L804.567 167.067Z" fill="white"/>
</g>
<defs>
<clipPath id="clip0_327_2089">
<rect width="918" height="239" fill="white"/>
</clipPath>
</defs>
</svg>
