<svg width="32" height="32" viewBox="0 0 32 32" fill="none" xmlns="http://www.w3.org/2000/svg">
<g id="Discord (Active)">
<path id="Vector" d="M27.1306 6.02698C30.7446 11.2572 32.5294 17.1568 31.8622 23.9485C31.8594 23.9773 31.8442 24.0036 31.8202 24.021C29.0834 25.999 26.4318 27.1995 23.8174 27.9956C23.7971 28.0017 23.7753 28.0014 23.7551 27.9947C23.735 27.988 23.7175 27.9752 23.705 27.9582C23.101 27.131 22.5522 26.2589 22.0714 25.3431C22.0438 25.2892 22.069 25.2242 22.1258 25.2029C22.9974 24.8797 23.8262 24.4923 24.6234 24.0336C24.6862 23.9973 24.6902 23.9088 24.6322 23.8662C24.463 23.7426 24.2954 23.6127 24.135 23.4827C24.105 23.4587 24.0646 23.454 24.0306 23.4701C18.855 25.8227 13.1855 25.8227 7.94867 23.4701C7.91467 23.4552 7.87427 23.4603 7.84507 23.4839C7.68507 23.6139 7.51707 23.7426 7.34947 23.8662C7.29147 23.9088 7.29627 23.9973 7.35947 24.0336C8.15667 24.4836 8.98547 24.8797 9.85586 25.2045C9.91226 25.2258 9.93906 25.2892 9.91106 25.3431C9.44067 26.2601 8.89187 27.1322 8.27667 27.9594C8.24987 27.9929 8.20587 28.0082 8.16427 27.9956C5.56227 27.1995 2.91068 25.999 0.173881 24.021C0.151081 24.0036 0.134681 23.9761 0.132281 23.9473C-0.425318 18.0726 0.71108 12.1242 4.85947 6.0258C4.86947 6.00965 4.88467 5.99705 4.90227 5.98957C6.94347 5.06747 9.13027 4.38908 11.4159 4.00166C11.4575 3.99536 11.4991 4.01426 11.5207 4.05048C11.8031 4.54264 12.1259 5.17378 12.3443 5.68956C14.7535 5.32733 17.2003 5.32733 19.6598 5.68956C19.8782 5.1848 20.1898 4.54264 20.471 4.05048C20.4811 4.03251 20.4966 4.01812 20.5154 4.00935C20.5342 4.00058 20.5554 3.99789 20.5758 4.00166C22.8626 4.39027 25.0494 5.06865 27.089 5.98957C27.107 5.99705 27.1218 6.00965 27.1306 6.02698ZM13.5691 17.1969C13.5943 15.4602 12.3079 14.0231 10.6931 14.0231C9.09147 14.0231 7.81747 15.4476 7.81747 17.1969C7.81747 18.9459 9.11667 20.3704 10.6931 20.3704C12.2951 20.3704 13.5691 18.9459 13.5691 17.1969ZM24.2018 17.1969C24.227 15.4602 22.9406 14.0231 21.3262 14.0231C19.7242 14.0231 18.4503 15.4476 18.4503 17.1969C18.4503 18.9459 19.7494 20.3704 21.3262 20.3704C22.9406 20.3704 24.2018 18.9459 24.2018 17.1969Z" fill="white"/>
</g>
</svg>
