<svg width="25" height="24" viewBox="0 0 25 24" fill="none" xmlns="http://www.w3.org/2000/svg">
<g id="Frame 1000003029">
<g id="Vector">
<path d="M1.28409 12C1.28409 18.1944 6.30562 23.2159 12.5 23.2159C18.6944 23.2159 23.7159 18.1944 23.7159 12C23.7159 5.80562 18.6944 0.78409 12.5 0.78409C6.30562 0.78409 1.28409 5.80562 1.28409 12Z" fill="#FFB3E6"/>
<path d="M1.28409 12C1.28409 18.1944 6.30562 23.2159 12.5 23.2159C18.6944 23.2159 23.7159 18.1944 23.7159 12C23.7159 5.80562 18.6944 0.78409 12.5 0.78409C6.30562 0.78409 1.28409 5.80562 1.28409 12Z" fill="url(#paint0_linear_495_2805)"/>
<path d="M1.28409 12C1.28409 18.1944 6.30562 23.2159 12.5 23.2159C18.6944 23.2159 23.7159 18.1944 23.7159 12C23.7159 5.80562 18.6944 0.78409 12.5 0.78409C6.30562 0.78409 1.28409 5.80562 1.28409 12Z" fill="#131313"/>
<path d="M1.28409 12C1.28409 18.1944 6.30562 23.2159 12.5 23.2159C18.6944 23.2159 23.7159 18.1944 23.7159 12C23.7159 5.80562 18.6944 0.78409 12.5 0.78409C6.30562 0.78409 1.28409 5.80562 1.28409 12Z" stroke="black" stroke-width="1.43182"/>
<path d="M1.28409 12C1.28409 18.1944 6.30562 23.2159 12.5 23.2159C18.6944 23.2159 23.7159 18.1944 23.7159 12C23.7159 5.80562 18.6944 0.78409 12.5 0.78409C6.30562 0.78409 1.28409 5.80562 1.28409 12Z" stroke="url(#paint1_linear_495_2805)" stroke-width="1.43182"/>
</g>
<g id="Group 1000003031">
<rect id="Rectangle 2590" x="11.0207" y="9.98486" width="3.14833" height="0.858635" rx="0.429317" fill="white"/>
<circle id="Ellipse 779" cx="6.87108" cy="10.1278" r="1.28795" fill="white"/>
<circle id="Ellipse 780" cx="18.3196" cy="10.1283" r="1.28795" fill="white"/>
</g>
</g>
<defs>
<linearGradient id="paint0_linear_495_2805" x1="20.8445" y1="30.3344" x2="-8.31505" y2="20.8971" gradientUnits="userSpaceOnUse">
<stop stop-color="#3733ED"/>
<stop offset="0.755" stop-color="#EB68FC"/>
</linearGradient>
<linearGradient id="paint1_linear_495_2805" x1="20.8445" y1="30.3344" x2="-8.31505" y2="20.8971" gradientUnits="userSpaceOnUse">
<stop stop-color="#3733ED"/>
<stop offset="0.755" stop-color="#EB68FC"/>
</linearGradient>
</defs>
</svg>
