<?xml version="1.0" encoding="UTF-8"?>
<svg id="Layer_1" data-name="Layer 1" xmlns="http://www.w3.org/2000/svg" version="1.1" viewBox="0 0 100 100">
  <defs>
    <style>
      .cls-1 {
        fill: #5086dc;
      }

      .cls-1, .cls-2 {
        stroke-width: 0px;
      }

      .cls-2 {
        fill: #80b1ff;
      }
    </style>
  </defs>
  <rect class="cls-2" width="100" height="100"/>
  <path class="cls-1" d="M72,84l-.2-.5c1.4-1.3,2.2-2.8,2.3-4.4.1-2.1-.8-4.3-2.9-6,7.8-10.3,3.7-27.7-1.3-36.6-.9-1.6-1.8-3-2.8-4.2,1.9,1.8,3.5,5.2,3.5,5.2,6.4-3.7,6.1-12.3-.3-15.4-3.8-1.8-8.9-.3-8.9-.3,0,0-.8-5.8-6.4-6.6-8.7-1.2-19.6,12.1-19.8,11.7-.2-.5.2-10.3-4.9-9.7-5.1.6-.6,11.7-.6,11.7,0,0-6.3-2.8-6.7.3-.5,3.1,5.5,3.7,5.5,3.7,0,0-5.7,4.8-4.8,10.1.9,5.4,4.1,10.9,4.1,10.9,0,0,1.2-.9,3.2-.9,0,0,0,0,0,0-1.9,0-3.6.9-4.9,2.3-1.3,1.4-2,3.4-2,5.6,0,4.3,3.1,7.9,6.9,7.9s3.2-.7,4.4-1.8h0s.3.1.3.1c.4,1.6,1.2,3.2,2.4,4.8-1.1.3-1.9.7-2.4,1.2-1.2,1.3-1.9,3.1-2.2,4.9-.2,1.8,0,3.6.6,5h0c-7.5,4.4-13.4,10.4-17.4,17.1h70.2c-3.5-5.1-8.3-10.5-14.7-16Z"/>
</svg>