<svg width="24" height="24" viewBox="0 0 24 24" fill="none" xmlns="http://www.w3.org/2000/svg">
<path d="M20.7141 10.2134C18.9345 10.2134 17.2868 9.64796 15.9413 8.68698V15.6726C15.9413 19.1671 13.107 22 9.61079 22C8.3063 22 7.09382 21.6058 6.08662 20.9298C4.39427 19.7941 3.28003 17.863 3.28003 15.6726C3.28003 12.1783 6.11438 9.34543 9.61089 9.3455C9.90146 9.34536 10.1917 9.36509 10.4795 9.40441V10.18L10.4794 12.904C10.2023 12.8161 9.90694 12.7684 9.6005 12.7684C8.00107 12.7684 6.70472 14.0643 6.70472 15.6627C6.70472 16.7928 7.35272 17.7714 8.29765 18.2481C8.68945 18.4456 9.13194 18.5569 9.60052 18.5569C11.1967 18.5569 12.4908 17.2663 12.4963 15.6726V2H15.9412V2.44029C15.9534 2.57192 15.9709 2.70305 15.9937 2.83332C16.2328 4.19637 17.0482 5.36094 18.1801 6.06685C18.9401 6.54103 19.8183 6.79171 20.7142 6.79035L20.7141 10.2134Z" fill="white"/>
</svg>
