<svg width="32" height="32" viewBox="0 0 32 32" fill="none" xmlns="http://www.w3.org/2000/svg">
<path fill-rule="evenodd" clip-rule="evenodd" d="M28.5017 3.77373C29.8794 4.2002 30.9622 5.45218 31.3309 7.04534C31.9973 9.93007 32 15.9524 32 15.9524C32 15.9524 32 21.9747 31.3309 24.8595C30.9622 26.4526 29.8794 27.7046 28.5017 28.131C26.0073 28.9048 15.9999 28.9048 15.9999 28.9048C15.9999 28.9048 5.99275 28.9048 3.49818 28.131C2.12052 27.7046 1.03787 26.4526 0.669081 24.8595C0 21.9747 0 15.9524 0 15.9524C0 15.9524 0 9.93007 0.669081 7.04534C1.03787 5.45218 2.12052 4.2002 3.49818 3.77373C5.99275 3 15.9999 3 15.9999 3C15.9999 3 26.0073 3 28.5017 3.77373ZM21.3537 15.9529L12.6443 20.9808V10.9248L21.3537 15.9529Z" fill="white"/>
</svg>
